<svg width="200" height="200" viewBox="0 0 200 200" fill="none" xmlns="http://www.w3.org/2000/svg">
<ellipse cx="100.11" cy="99.8609" rx="97.0066" ry="96.8265" fill="#0025FF"/>
<rect width="40.3819" height="3.23055" transform="matrix(0.965926 0.258819 -0.260614 0.965443 91.2588 72.884)" fill="white"/>
<rect width="40.3819" height="3.23055" transform="matrix(0.260614 -0.965443 0.965926 0.258819 116.619 121.486)" fill="white"/>
<rect x="71.1738" y="114.801" width="64.6412" height="3.22905" transform="matrix(0.866891 -0.499892 0.498498 0.866088 -47.7542 50.9525)" fill="white"/>
<path d="M93.3196 182.768L87.4824 182.15C87.5062 182.049 87.5062 182.049 87.53 181.947C87.5538 181.846 87.5776 181.745 87.5776 181.745C87.6015 181.643 87.6015 181.643 87.6253 181.542C87.6491 181.441 87.6729 181.339 87.5716 181.316C87.9766 181.411 88.4829 181.529 89.0905 181.671L90.7583 181.848L91.9972 182.031L93.1862 171.514C93.49 171.585 93.7937 171.656 93.9188 171.579C94.1213 171.626 94.3476 171.572 94.6514 171.643L93.3196 182.768Z" fill="white"/>
<path d="M84.9493 176.106C84.735 177.018 84.3659 177.68 83.7942 178.294C83.3238 178.932 82.6747 179.422 82.0494 179.81C81.3228 180.174 80.6439 180.336 79.8636 180.474C79.1072 180.511 78.2733 180.422 77.4632 180.233C76.6532 180.043 75.9919 179.675 75.3307 179.306C74.6695 178.937 74.1572 178.39 73.6686 177.741C73.1801 177.092 72.9179 176.39 72.7807 175.609C72.6435 174.829 72.7327 173.995 72.9707 172.982C73.185 172.07 73.5779 171.307 74.1496 170.693C74.62 170.054 75.2691 169.565 75.9957 169.201C76.7222 168.836 77.425 168.573 78.2827 168.56C79.1404 168.547 79.9743 168.636 80.8856 168.849C81.7969 169.062 82.5594 169.455 83.1968 169.924C83.8342 170.394 84.3466 170.942 84.7339 171.567C85.1211 172.192 85.3834 172.895 85.3955 173.752C85.3301 174.485 85.2409 175.32 84.9493 176.106ZM74.5679 177.097C74.8539 177.698 75.1637 178.198 75.6999 178.644C76.236 179.09 76.796 179.435 77.4035 179.577C78.3149 179.791 79.1488 179.879 79.9766 179.538C80.7806 179.299 81.531 178.833 82.1265 178.118C82.7219 177.402 83.1387 176.538 83.5018 175.447C83.7398 174.434 83.8528 173.498 83.6382 172.593C83.4235 171.688 83.0601 170.961 82.5477 170.414C82.0354 169.866 81.2729 169.474 80.4866 169.183C79.6765 168.994 79.0452 168.953 78.3662 169.114C77.6872 169.276 77.0857 169.563 76.5617 169.975C76.0376 170.386 75.591 170.923 75.2457 171.484C74.9003 172.044 74.6563 172.628 74.5372 173.135C74.3706 173.844 74.204 174.553 74.1624 175.185C74.2221 175.84 74.2819 176.495 74.5679 177.097Z" fill="white"/>
<path d="M69.0683 164.587C69.247 164.735 69.5508 164.806 69.7295 164.955C69.9082 165.104 70.212 165.175 70.4145 165.222L65.9078 174.856C66.974 175.319 68.0403 175.783 69.3329 176.192C69.3091 176.293 69.3091 176.293 69.184 176.371C69.0589 176.449 69.0351 176.55 69.0351 176.55C69.0113 176.651 69.0113 176.651 68.9875 176.752C68.9637 176.854 68.9399 176.955 68.9161 177.056L61.1187 173.414L61.1425 173.313C61.1663 173.212 61.1663 173.212 61.2914 173.134C61.3152 173.033 61.3152 173.033 61.3152 173.033L61.339 172.931C61.339 172.931 61.3628 172.83 61.3866 172.729C61.4104 172.627 61.4104 172.627 61.4104 172.627C62.3516 173.168 63.394 173.733 64.4365 174.298L69.0683 164.587Z" fill="white"/>
<path d="M60.9282 166.956C60.434 167.695 59.8623 168.31 59.1357 168.674C58.5104 169.062 57.6826 169.403 57.0274 169.463C56.2472 169.601 55.5146 169.537 54.7045 169.347C53.8944 169.157 53.2332 168.789 52.4945 168.295C51.8571 167.826 51.2435 167.254 50.7312 166.707C50.2426 166.058 49.8553 165.433 49.6944 164.754C49.4322 164.051 49.3963 163.295 49.5867 162.484C49.6759 161.65 50.0688 160.887 50.563 160.148C51.0572 159.408 51.7301 158.818 52.3792 158.328C53.0284 157.839 53.8324 157.599 54.6126 157.461C55.3928 157.323 56.2267 157.412 57.0368 157.601C57.8469 157.791 58.6094 158.183 59.348 158.677C60.0867 159.17 60.7003 159.742 61.165 160.492C61.6536 161.14 61.9158 161.843 62.053 162.623C62.1901 163.404 62.1248 164.137 61.9581 164.846C61.6903 165.531 61.4224 166.217 60.9282 166.956ZM50.7247 164.461C50.7844 165.116 50.9692 165.694 51.2552 166.295C51.5412 166.897 52.0774 167.343 52.6135 167.789C53.4535 168.306 54.2398 168.597 55.0736 168.685C55.9313 168.672 56.7116 168.534 57.587 167.991C58.3374 167.525 59.1354 166.857 59.7784 165.939C60.4215 165.02 60.737 164.132 60.9274 163.322C61.0166 162.488 60.9032 161.606 60.641 160.903C60.2775 160.177 59.7652 159.63 59.1278 159.16C58.4903 158.69 57.8053 158.423 57.174 158.382C56.4413 158.317 55.8874 158.401 55.1847 158.664C54.5832 158.951 53.9816 159.238 53.4576 159.649C52.9335 160.061 52.5107 160.497 52.1892 160.956C51.7188 161.594 51.4747 162.178 51.2306 162.762C50.8078 163.198 50.665 163.806 50.7247 164.461Z" fill="white"/>
<path d="M43.7353 161.008L41.406 158.646C40.7924 158.075 40.3813 157.551 40.0714 157.051C39.7616 156.551 39.6543 156.098 39.7495 155.693C39.7435 155.264 40.065 154.805 40.3627 154.447C40.9106 153.934 41.5121 153.647 42.2685 153.61C43.025 153.574 43.71 153.841 44.3712 154.209C43.8826 153.561 43.4954 152.936 43.3344 152.257C43.1734 151.578 43.4413 150.892 44.013 150.278C44.8586 149.407 45.8889 149.114 47.104 149.398C47.6103 149.517 48.0928 149.736 48.5515 150.058C49.0102 150.379 49.5464 150.825 50.0587 151.372L51.7983 153.062L43.7353 161.008ZM46.1943 156.453L45.7594 156.031C45.0683 155.335 44.4309 154.865 43.9484 154.645C43.5672 154.449 43.1383 154.455 42.6857 154.563C42.233 154.671 41.8816 154.802 41.5839 155.16C41.036 155.673 40.792 156.258 40.9767 156.835C41.0602 157.389 41.4475 158.014 42.1624 158.609L43.1096 159.579L46.1943 156.453ZM50.2495 152.379L49.0223 151.237C48.6887 150.838 48.2062 150.618 47.825 150.422C47.3187 150.303 46.9136 150.209 46.461 150.316C46.0083 150.424 45.6331 150.657 45.2341 150.991C44.5374 151.683 44.2933 152.267 44.4543 152.946C44.6153 153.625 45.08 154.375 45.8723 155.095L46.5634 155.791L50.2495 152.379Z" fill="white"/>
<path d="M29.9804 144.535C29.9267 144.308 29.748 144.16 29.5931 143.91C29.4382 143.659 29.2595 143.511 29.0807 143.362L38.4008 136.886C38.4782 137.011 38.5557 137.136 38.6331 137.261C38.7106 137.386 38.788 137.511 38.788 137.511C38.8655 137.636 38.9668 137.66 39.0442 137.785C39.1217 137.91 39.1991 138.035 39.3004 138.059L29.9804 144.535ZM38.3256 147.664L37.4498 146.39C36.8063 145.491 36.4429 144.765 36.1568 144.163C35.9721 143.586 35.8886 143.032 36.1088 142.549C36.3291 142.066 36.6269 141.708 37.1509 141.296C37.675 140.885 38.2527 140.699 38.8066 140.615C39.3605 140.531 39.8668 140.649 40.3255 140.971C40.808 141.19 41.4454 141.66 41.9339 142.309C42.1901 142.583 42.6012 143.107 43.2208 144.107C43.3758 144.357 43.5307 144.607 43.7868 144.88C44.043 145.154 44.1205 145.279 44.1205 145.279L34.8005 151.755C34.8005 151.755 34.723 151.63 34.7468 151.529C34.6693 151.404 34.6693 151.404 34.5919 151.279C34.5144 151.154 34.5144 151.154 34.437 151.029C34.437 151.029 34.3595 150.904 34.2583 150.88C34.157 150.856 34.1808 150.755 34.1033 150.63C34.0259 150.505 34.0259 150.505 33.9246 150.481L38.3256 147.664ZM42.9231 144.465L41.9698 143.066C41.4813 142.417 40.8201 142.048 40.1887 142.007C39.5811 141.865 38.9022 142.027 38.2531 142.516C37.8779 142.749 37.7052 143.029 37.5325 143.31C37.3599 143.59 37.2885 143.894 37.3183 144.221C37.3482 144.549 37.4793 144.9 37.6104 145.252C37.6878 145.377 37.9202 145.752 38.1526 146.127C38.23 146.252 38.3849 146.502 38.6411 146.776C38.8973 147.049 38.9748 147.174 38.9509 147.276L42.9231 144.465Z" fill="white"/>
<path d="M19.4929 120.062C19.4929 120.062 19.5167 119.96 19.4393 119.835C19.4631 119.734 19.3856 119.609 19.4094 119.508C19.4332 119.406 19.332 119.383 19.3558 119.281C19.3558 119.281 19.2783 119.156 19.3021 119.055C19.3259 118.954 19.2247 118.93 19.1472 118.805C19.171 118.704 19.0697 118.68 19.0935 118.579L29.9986 115.36C29.9748 115.461 30.0523 115.586 30.1297 115.711C30.2072 115.836 30.1834 115.937 30.1596 116.039C30.1358 116.14 30.2132 116.265 30.2907 116.39C30.3681 116.515 30.4456 116.64 30.4218 116.741L24.9186 118.339C25.4253 120.275 25.6936 121.406 25.8247 121.758C25.9558 122.109 26.2241 123.241 26.8558 125.099L32.359 123.501C32.3352 123.602 32.4126 123.727 32.4901 123.852C32.5675 123.977 32.5437 124.079 32.5199 124.18C32.4961 124.281 32.5736 124.406 32.651 124.531C32.7285 124.656 32.806 124.781 32.7822 124.883L21.8771 128.102C21.8771 128.102 21.9009 128 21.8235 127.875C21.8473 127.774 21.7698 127.649 21.7936 127.548C21.8174 127.446 21.7161 127.423 21.7399 127.321C21.7399 127.321 21.6625 127.196 21.6863 127.095C21.6088 126.97 21.6088 126.97 21.5314 126.845C21.4539 126.72 21.4539 126.72 21.4777 126.619L26.0756 125.237C25.9683 124.784 25.861 124.331 25.6226 123.527C25.4616 122.848 25.2768 122.271 25.1695 121.818C25.0622 121.365 24.8775 120.788 24.6152 120.085C24.353 119.382 24.2695 118.828 24.1384 118.477L19.4929 120.062Z" fill="white"/>
<path d="M28.3031 102.564C28.2793 102.665 28.3568 102.79 28.3092 102.993C28.2616 103.196 28.339 103.321 28.3152 103.422C28.2914 103.523 28.3689 103.648 28.4225 103.875C28.4762 104.101 28.4524 104.202 28.5299 104.327C28.1547 104.56 27.6782 104.769 27.2018 104.978C26.7015 105.289 26.2251 105.498 25.7248 105.808C25.2246 106.119 24.7481 106.328 24.2717 106.537L24.7848 110.719C26.9887 111.342 28.5076 111.697 29.4189 111.91C29.3951 112.012 29.3713 112.113 29.4488 112.238C29.5263 112.363 29.5024 112.464 29.4786 112.566C29.4548 112.667 29.5323 112.792 29.5085 112.893C29.586 113.018 29.5622 113.12 29.5622 113.12L17.4465 109.215L17.3392 108.762L28.3031 102.564ZM19.5907 109.182L23.9747 110.529L23.5451 106.901L19.5907 109.182Z" fill="white"/>
<path d="M17.4789 91.8001C17.4789 91.8001 17.5027 91.6988 17.5265 91.5975C17.5503 91.4962 17.5741 91.3949 17.5979 91.2936C17.6217 91.1923 17.6455 91.091 17.6455 91.091C17.6455 91.091 17.6693 90.9896 17.6931 90.8883C17.7169 90.787 17.7407 90.6857 17.6633 90.5607C17.6871 90.4594 17.7109 90.3581 17.6096 90.3344L28.9742 91.0706C28.9503 91.1719 28.9265 91.2732 28.8789 91.4759C28.8313 91.6785 28.8075 91.7798 28.8075 91.7798C28.7837 91.8811 28.7599 91.9824 28.8374 92.1074C28.7898 92.3101 28.8672 92.4351 28.8672 92.4351L23.185 92.0669C23.8107 93.496 24.0313 94.8303 24.0019 96.3198C23.9841 96.85 23.8413 97.4579 23.5972 98.0421C23.3531 98.6262 23.0316 99.0854 22.6326 99.4195C22.2336 99.7537 21.7572 99.9628 21.1258 99.9219L17.0101 99.7067C17.0101 99.7067 17.0339 99.6054 17.0577 99.5041C17.0815 99.4028 17.1053 99.3014 17.1291 99.2001C17.1529 99.0988 17.1767 98.9975 17.1767 98.9975C17.1767 98.9975 17.2005 98.8962 17.2243 98.7949C17.2481 98.6936 17.2719 98.5923 17.1944 98.4672C17.2182 98.3659 17.242 98.2646 17.1408 98.2409L21.1553 98.4324C21.5841 98.4259 21.9355 98.2944 22.2094 98.0379C22.4834 97.7813 22.6798 97.3998 22.775 96.9945C22.8703 96.5893 22.9893 96.0827 22.9832 95.6538C23.001 95.1235 22.9413 94.4682 22.7803 93.7893C22.6194 93.1103 22.4346 92.5326 22.101 92.1339L17.4789 91.8001Z" fill="white"/>
<path d="M31.6448 78.3356C31.621 78.4369 31.5972 78.5382 31.5496 78.7408C31.502 78.9435 31.4782 79.0448 31.4544 79.1461C31.4306 79.2474 31.383 79.45 31.3592 79.5513C31.3116 79.754 31.2878 79.8553 31.264 79.9566C30.8351 79.9631 30.2812 80.0472 29.7273 80.1313C29.1734 80.2154 28.6195 80.2995 28.0656 80.3836C27.5117 80.4678 26.9578 80.5519 26.5051 80.6597L25.5292 84.8135C27.364 86.098 28.7639 86.9601 29.5025 87.4537C29.4787 87.555 29.4549 87.6563 29.4311 87.7576C29.4073 87.8589 29.3835 87.9603 29.3597 88.0616C29.3359 88.1629 29.3121 88.2642 29.2883 88.3655C29.2645 88.4668 29.2407 88.5681 29.2169 88.6694L19.066 80.9491L19.1612 80.5439L31.6448 78.3356ZM21.1686 81.5482L24.8918 84.3436L25.7249 80.7977L21.1686 81.5482Z" fill="white"/>
<path d="M34.1338 72.2912C33.9849 72.4701 33.9135 72.774 33.7646 72.953C33.717 73.1556 33.5443 73.4358 33.4967 73.6384L23.7516 69.6472C23.2872 70.7142 22.9241 71.805 22.5134 73.0983C22.4122 73.0746 22.4122 73.0746 22.3347 72.9496C22.2335 72.9259 22.1322 72.9022 22.156 72.8009C22.0548 72.7772 22.0548 72.7772 21.9535 72.7535C21.8522 72.7298 21.751 72.7061 21.6497 72.6824L24.9179 64.6829L25.0192 64.7066C25.1205 64.7303 25.1205 64.7303 25.2217 64.754C25.323 64.7777 25.323 64.7777 25.323 64.7777L25.4242 64.8014C25.5255 64.8251 25.5255 64.8251 25.6268 64.8488C25.728 64.8725 25.728 64.8725 25.728 64.8725C25.1624 65.9158 24.7219 66.8816 24.2337 68.0499L34.1338 72.2912Z" fill="white"/>
<path d="M32.0221 62.1774L32.7603 60.8539C33.3022 59.9119 33.7964 59.1725 34.3204 58.7607C34.7432 58.3253 35.2197 58.1161 35.7736 58.032C36.2024 58.0255 36.81 58.1677 37.3699 58.5126C37.8524 58.7324 38.1086 59.0061 38.341 59.3812C38.5971 59.6549 38.7282 60.0062 38.8356 60.4589C38.9667 60.8102 38.9727 61.2392 38.8537 61.7458C38.7347 62.2523 38.6157 62.7589 38.4728 63.3668C38.4014 63.6707 38.0561 64.2312 37.5381 65.0719C37.3654 65.3521 37.1689 65.7336 36.9725 66.1152C36.776 66.4967 36.6271 66.6757 36.6271 66.6757L26.8816 60.8673C27.0305 60.6884 27.1793 60.5095 27.352 60.2292C27.352 60.2292 27.3758 60.1279 27.5009 60.0503C27.5247 59.949 27.5485 59.8477 27.6735 59.7701C27.6974 59.6687 27.7212 59.5674 27.7212 59.5674L32.0221 62.1774ZM36.8293 64.9059L37.6926 63.5048C38.0856 62.7417 38.1509 62.0088 37.9662 61.4311C37.8052 60.7521 37.3941 60.2284 36.7329 59.8598C36.3517 59.6637 36.0479 59.5926 35.7441 59.5215C35.4403 59.4504 35.0889 59.5819 34.7376 59.7134C34.3862 59.8449 34.1122 60.1015 33.9158 60.483C33.7669 60.6619 33.5942 60.9422 33.3978 61.3237C33.2489 61.5026 33.2013 61.7053 33.0286 61.9855C32.8559 62.2657 32.8083 62.4684 32.6833 62.546L36.8293 64.9059Z" fill="white"/>
<path d="M47.718 35.3898L55.3556 43.8044C55.2306 43.882 55.2068 43.9833 55.0817 44.0609C54.9566 44.1385 54.8316 44.2161 54.8078 44.3174C54.784 44.4188 54.6589 44.4964 54.5338 44.574C54.4088 44.6516 54.385 44.7529 54.2599 44.8305L47.1109 37.0647C46.1878 37.8106 45.366 38.5802 44.5204 39.4511C43.6987 40.2207 42.8769 40.9903 41.93 41.8375L49.0791 49.6033C48.954 49.6809 48.9302 49.7822 48.8051 49.8598C48.6801 49.9374 48.555 50.0151 48.5312 50.1164C48.5074 50.2177 48.3823 50.2953 48.2573 50.3729C48.1322 50.4505 48.1084 50.5518 47.9834 50.6294L40.3458 42.2149L47.718 35.3898Z" fill="white"/>
<path d="M59.8268 40.6826C59.7018 40.7602 59.6005 40.7365 59.4754 40.8141C59.3504 40.8917 59.2253 40.9693 59.2253 40.9693C59.1003 41.0469 59.0765 41.1482 58.9514 41.2259C58.8263 41.3035 58.7013 41.3811 58.6775 41.4824L52.487 31.9102L55.012 30.2566C55.9113 29.6121 56.7391 29.2714 57.3168 29.086C57.8945 28.9006 58.4246 28.9178 58.9309 29.0363C59.4134 29.2561 59.7709 29.5535 60.1581 30.1786C60.3905 30.5537 60.5991 31.03 60.7302 31.3814C60.8375 31.834 60.7661 32.1379 60.6709 32.5432C60.5757 32.9484 60.3792 33.33 60.0815 33.6878C59.7837 34.0457 59.4622 34.5048 59.0394 34.9403C58.8905 35.1192 58.6404 35.2744 58.2652 35.5073C58.1402 35.5849 57.89 35.7401 57.6399 35.8953C57.3898 36.0505 57.2647 36.1281 57.1396 36.2058L59.8268 40.6826ZM56.6035 35.7596C56.8536 35.6044 57.1037 35.4492 57.2288 35.3716C57.3539 35.2939 57.604 35.1387 57.9792 34.9059C58.6283 34.4165 58.9974 33.7547 59.1403 33.1469C59.2831 32.539 59.1221 31.86 58.7348 31.2349C58.5025 30.8599 58.2225 30.6875 57.9663 30.4137C57.6863 30.2413 57.3826 30.1702 57.0788 30.0991C56.7512 30.1293 56.4236 30.1595 56.0484 30.3924C55.8221 30.4463 55.4469 30.6791 54.9229 31.0908C54.4226 31.4013 54.1487 31.6578 54.0236 31.7354L56.6035 35.7596Z" fill="white"/>
<path d="M64.5365 31.0966C64.1968 30.2689 64.0597 29.4886 64.0476 28.6307C64.0355 27.7728 64.2021 27.0636 64.5713 26.4018C64.8391 25.7163 65.3095 25.0782 65.9587 24.5889C66.5065 24.0758 67.2569 23.6101 67.9835 23.2458C68.71 22.8815 69.4903 22.7434 70.2705 22.6054C71.0269 22.5687 71.7833 22.532 72.5696 22.8229C73.2784 22.9888 73.9397 23.3574 74.5533 23.9286C75.1669 24.4997 75.6554 25.1485 75.9713 26.0775C76.311 26.9052 76.5494 27.7092 76.5615 28.5671C76.5736 29.425 76.407 30.1342 76.1153 30.921C75.8474 31.6065 75.3532 32.3459 74.7041 32.8352C74.1324 33.4496 73.4058 33.814 72.5542 34.2559C71.7264 34.5966 70.9223 34.8359 70.0646 34.8489C69.3082 34.8856 68.4743 34.7973 67.7893 34.5301C67.1043 34.2628 66.4669 33.793 65.9545 33.2455C65.2635 32.5493 64.9 31.8229 64.5365 31.0966ZM72.1291 23.7886C71.5691 23.4438 70.9616 23.3016 70.2289 23.237C69.5976 23.1961 68.9186 23.3578 68.3171 23.6445C67.4893 23.9852 66.7151 24.5522 66.2209 25.2916C65.7267 26.0309 65.5362 26.8414 65.4471 27.6756C65.4354 28.6349 65.65 29.5402 66.0433 30.5942C66.4605 31.5469 67.0027 32.422 67.6401 32.8919C68.3549 33.4867 69.0399 33.754 69.8738 33.8423C70.7077 33.9306 71.4879 33.7926 72.1907 33.5295C72.8935 33.2665 73.5426 32.7771 73.8879 32.2167C74.3345 31.6799 74.5786 31.0957 74.7452 30.3865C74.8881 29.7787 74.9534 29.0458 74.7925 28.3668C74.7328 27.7115 74.548 27.1338 74.3632 26.5562C74.101 25.8535 73.7137 25.2284 73.3801 24.8297C73.1239 24.5559 72.689 24.1335 72.1291 23.7886Z" fill="white"/>
<path d="M81.2177 24.2059L83.7072 23.6129C83.9335 23.559 84.1598 23.5051 84.5112 23.3735C84.8626 23.242 85.0889 23.1881 85.0889 23.1881L85.0651 23.2894C85.0413 23.3907 85.0413 23.3907 85.1188 23.5158C85.095 23.6171 85.095 23.6171 85.095 23.6171C85.095 23.6171 85.0712 23.7184 85.1724 23.7421C85.2737 23.7658 85.2499 23.8671 85.2499 23.8671L85.3274 23.9921C85.2023 24.0697 84.8747 24.0999 84.6484 24.1538C84.3208 24.184 84.0945 24.2379 83.8682 24.2919L81.3786 24.8848L82.5053 29.6377C83.1843 29.476 84.0896 29.2604 85.4475 28.9369C85.9002 28.8291 86.4779 28.6437 86.9543 28.4345C86.9543 28.4345 86.9305 28.5359 87.0318 28.5596C87.008 28.6609 87.008 28.6609 87.0855 28.7859C87.0617 28.8872 87.0616 28.8872 87.1629 28.9109C87.1391 29.0122 87.2404 29.0359 87.2166 29.1372C87.1928 29.2385 87.294 29.2622 87.2702 29.3636L81.3858 30.7651L78.858 19.6988L84.6174 18.3748C84.5936 18.4762 84.6948 18.4999 84.671 18.6012C84.6472 18.7025 84.7247 18.8275 84.7247 18.8275C84.7009 18.9288 84.8021 18.9525 84.7783 19.0538C84.8558 19.1788 84.8558 19.1788 84.832 19.2801C84.4032 19.2867 83.9505 19.3945 83.2953 19.4549L81.7111 19.8322L80.4782 20.0781L81.2177 24.2059Z" fill="white"/>
<path d="M93.9883 20.7818L92.6723 22.2908C93.0297 22.5882 93.3633 22.987 93.822 23.3081C94.1795 23.6055 94.6143 24.028 94.9718 24.3254C95.3292 24.6228 95.7641 25.0453 96.199 25.4677C96.6339 25.8902 96.9913 26.1876 97.2475 26.4614L98.7071 27.9787L98.6833 28.0801C98.582 28.0563 98.3557 28.1103 98.1532 28.0629C97.9507 28.0154 97.8256 28.0931 97.7243 28.0694C97.6231 28.0457 97.498 28.1233 97.2717 28.1772C97.0454 28.2311 96.9441 28.2074 96.819 28.285C96.3067 27.7375 95.8956 27.2138 95.5382 26.9163L91.5467 22.9893C91.4454 22.9656 91.3442 22.9419 91.3442 22.9419L91.9053 28.7381C91.804 28.7144 91.679 28.792 91.4765 28.7446C91.2739 28.6972 91.1489 28.7748 91.1489 28.7748C91.0476 28.7511 90.9226 28.8287 90.8213 28.805C90.72 28.7813 90.4937 28.8352 90.4937 28.8352L89.3001 17.5467C89.3001 17.5467 89.4013 17.5704 89.5026 17.5941C89.6038 17.6178 89.7051 17.6415 89.8302 17.5639C89.9314 17.5876 90.0327 17.6113 90.0565 17.51C90.0565 17.51 90.1578 17.5337 90.2828 17.4561C90.3841 17.4798 90.5091 17.4022 90.6104 17.4259C90.7117 17.4496 90.8367 17.372 90.8367 17.372L91.3381 22.5129C91.3381 22.5129 91.3381 22.5129 91.4394 22.5366C91.5407 22.5603 91.6657 22.4827 91.7908 22.4051C91.9396 22.2262 92.2136 21.9696 92.6364 21.5342L96.3818 16.9598C96.4831 16.9835 96.6081 16.9059 96.7094 16.9296C96.8107 16.9533 96.9357 16.8757 97.037 16.8994C97.037 16.8994 97.1382 16.9231 97.2633 16.8455C97.3884 16.7679 97.3884 16.7679 97.4896 16.7916C97.5909 16.8153 97.6147 16.714 97.716 16.7377L93.9883 20.7818Z" fill="white"/>
<path d="M104.491 28.3706C104.187 28.2995 103.985 28.2521 103.758 28.306C103.556 28.2586 103.228 28.2888 103.002 28.3427L103.458 17.7612C102.297 17.7031 101.112 17.7463 99.825 17.7658C99.8488 17.6645 99.8488 17.6645 99.8726 17.5631C99.8964 17.4618 99.9202 17.3605 99.9202 17.3605C99.944 17.2592 99.944 17.2592 99.8665 17.1342C99.7891 17.0092 99.8129 16.9079 99.8129 16.9079L108.372 17.3081C108.372 17.3081 108.348 17.4094 108.324 17.5107C108.301 17.612 108.301 17.612 108.277 17.7133C108.253 17.8146 108.253 17.8146 108.253 17.8146L108.229 17.916C108.205 18.0173 108.205 18.0173 108.283 18.1423C108.36 18.2673 108.259 18.2436 108.259 18.2436C107.121 18.0842 105.984 17.9248 104.822 17.8667L104.491 28.3706Z" fill="white"/>
<path d="M113.555 23.4374C113.281 23.6939 113.007 23.9505 112.757 24.1057C112.608 24.2846 112.435 24.5648 112.388 24.7675C112.316 25.0714 112.37 25.2977 112.548 25.4464C112.703 25.6965 112.906 25.7439 113.21 25.815C113.412 25.8624 113.537 25.7848 113.74 25.8322L113.817 25.9572L113.496 26.4163C113.394 26.3926 113.269 26.4703 113.067 26.4228C112.763 26.3517 112.459 26.2806 112.203 26.0069C111.923 25.8345 111.768 25.5845 111.637 25.2331C111.506 24.8818 111.476 24.5541 111.571 24.1489C111.667 23.7436 111.738 23.4397 112.012 23.1832C112.185 22.9029 112.56 22.6701 112.858 22.3123L114.007 21.5125C114.656 21.0231 115.103 20.4863 115.198 20.0811C115.293 19.6758 115.162 19.3245 114.906 19.0508C114.65 18.777 114.268 18.5809 113.863 18.4861C113.661 18.4387 113.333 18.4689 113.107 18.5228C112.857 18.678 112.63 18.7319 112.38 18.8871L112.469 18.0529C113.172 17.7899 113.726 17.7058 114.131 17.8006C114.638 17.9191 115.043 18.0139 115.4 18.3114C115.781 18.5075 116.014 18.8825 116.145 19.2339C116.276 19.5852 116.282 20.0142 116.288 20.4431C116.193 20.8484 116.097 21.2536 115.8 21.6115C115.627 21.8917 115.228 22.2258 114.829 22.56L113.555 23.4374ZM112.501 27.4662C112.805 27.5373 112.984 27.686 113.162 27.8347C113.317 28.0847 113.371 28.3111 113.3 28.615C113.228 28.919 113.079 29.0979 112.931 29.2768C112.782 29.4557 112.454 29.4859 112.252 29.4385C111.948 29.3674 111.769 29.2187 111.59 29.07C111.412 28.9213 111.28 28.5699 111.352 28.266C111.423 27.962 111.572 27.7831 111.822 27.6279C112.072 27.4727 112.299 27.4188 112.501 27.4662Z" fill="white"/>
<path d="M139.388 26.7054C139.388 26.7054 139.489 26.7291 139.566 26.8541C139.644 26.9792 139.745 27.0029 139.846 27.0266C139.948 27.0503 140.049 27.074 140.025 27.1753C140.025 27.1753 140.126 27.199 140.228 27.2227C140.329 27.2464 140.43 27.2701 140.531 27.2938C140.633 27.3175 140.734 27.3412 140.734 27.3412L135.757 37.6128C135.656 37.5891 135.578 37.464 135.376 37.4166C135.274 37.3929 135.197 37.2679 135.096 37.2442C134.994 37.2205 134.893 37.1968 134.714 37.0481C134.512 37.0007 134.411 36.977 134.411 36.977L136.911 31.7905C135.207 30.8573 134.141 30.394 133.76 30.1979C133.48 30.0255 132.414 29.5621 130.585 28.7065L128.084 33.8929C127.983 33.8692 127.906 33.7442 127.703 33.6968C127.602 33.6731 127.423 33.5244 127.423 33.5244C127.322 33.5007 127.221 33.477 127.042 33.3283C126.839 33.2809 126.738 33.2572 126.738 33.2572L131.817 23.0093C131.817 23.0093 131.918 23.033 131.995 23.158C132.097 23.1817 132.174 23.3067 132.275 23.3304C132.377 23.3541 132.478 23.3779 132.454 23.4792C132.454 23.4792 132.555 23.5029 132.657 23.5266C132.758 23.5503 132.859 23.574 132.96 23.5977C133.062 23.6214 133.163 23.6451 133.163 23.6451L131.079 27.9671C131.46 28.1632 131.943 28.3831 132.604 28.7516C133.265 29.1201 133.748 29.34 134.23 29.5598C134.713 29.7796 135.195 29.9994 135.88 30.2667C136.565 30.5339 137.048 30.7537 137.429 30.9498L139.388 26.7054Z" fill="white"/>
<path d="M146.407 45.0229C146.306 44.9992 146.228 44.8742 146.05 44.7255C145.871 44.5768 145.77 44.5531 145.692 44.428C145.591 44.4043 145.513 44.2793 145.335 44.1306C145.156 43.9819 145.055 43.9582 144.953 43.9345C145.049 43.5292 145.269 43.0464 145.412 42.4385C145.555 41.8306 145.674 41.3241 145.793 40.8175C145.912 40.3109 146.031 39.8044 146.173 39.1965L142.808 36.6985C140.908 37.964 139.532 38.8177 138.859 39.4084C138.758 39.3847 138.681 39.2597 138.579 39.236C138.478 39.2122 138.401 39.0872 138.401 39.0872C138.299 39.0635 138.222 38.9385 138.121 38.9148C138.019 38.8911 137.942 38.7661 137.942 38.7661L148.954 32.3654L149.234 32.5378L146.407 45.0229ZM147.489 34.0533L143.51 36.4355L146.418 38.6123L147.489 34.0533Z" fill="white"/>
<path d="M163.4 45.901L155.236 53.8233C155.159 53.6983 155.057 53.6746 154.98 53.5496C154.902 53.4246 154.825 53.2996 154.724 53.2759C154.622 53.2522 154.545 53.1271 154.467 53.0021C154.39 52.8771 154.289 52.8534 154.211 52.7284L161.804 45.4205C161.035 44.5993 160.189 43.6531 159.421 42.8319C158.652 42.0107 157.783 41.1658 156.913 40.3209L149.32 47.6288C149.243 47.5038 149.141 47.4801 149.064 47.3551C148.987 47.2301 148.909 47.105 148.808 47.0813C148.707 47.0576 148.629 46.9326 148.552 46.8076C148.474 46.6826 148.373 46.6589 148.295 46.5339L156.46 38.6116L163.4 45.901Z" fill="white"/>
<path d="M167.203 50.6385C167.28 50.7636 167.334 50.9899 167.59 51.2636C167.59 51.2636 167.745 51.5136 167.977 51.8887L160.676 56.5927L160.753 56.7177L172.13 58.3118L172.517 58.9369L162.941 65.1392C162.786 64.8892 162.732 64.6629 162.554 64.5141C162.476 64.3891 162.321 64.1391 162.166 63.8891L169.843 58.9522L169.765 58.8272L159.199 57.4227C158.794 57.3279 158.264 57.3107 157.859 57.2159L157.626 56.8408L167.203 50.6385Z" fill="white"/>
<path d="M167.517 72.9442L177.38 69.1604C177.434 69.3868 177.487 69.6131 177.642 69.8631C177.773 70.2145 177.851 70.3395 177.904 70.5658L168.042 74.3496L169.377 77.7617L179.239 73.9779C179.293 74.2042 179.347 74.4306 179.502 74.6806C179.555 74.9069 179.71 75.157 179.764 75.3833L169.073 79.5077C168.835 78.7037 168.078 76.9233 166.952 73.9876C165.879 71.2781 165.146 69.3964 164.806 68.5687L175.497 64.4443C175.551 64.6706 175.604 64.8969 175.759 65.147C175.813 65.3733 175.968 65.6233 176.021 65.8496L166.159 69.6334L167.517 72.9442Z" fill="white"/>
<path d="M181.157 81.2675C181.133 81.3688 181.187 81.5951 181.193 82.024C181.193 82.024 181.223 82.3517 181.354 82.703L172.795 84.1199L172.873 84.245L182.672 90.2796L182.833 90.9586L171.606 92.8198C171.576 92.4922 171.523 92.2658 171.57 92.0632C171.493 91.9382 171.463 91.6106 171.409 91.3842L180.421 89.8595L180.343 89.7345L171.259 84.2947C170.877 84.0985 170.52 83.8011 170.139 83.605L170.032 83.1523L181.157 81.2675Z" fill="white"/>
<path d="M171.769 100.767C171.841 100.463 171.787 100.237 171.835 100.034C171.781 99.808 171.852 99.504 171.799 99.2777L182.371 99.2941C182.329 98.1085 182.287 96.923 182.168 95.6124C182.269 95.6361 182.269 95.6361 182.37 95.6598C182.471 95.6835 182.573 95.7072 182.573 95.7072C182.674 95.7309 182.674 95.7309 182.799 95.6533C182.9 95.677 183.025 95.5994 183.025 95.5994L183.045 104.155L182.944 104.131C182.843 104.107 182.843 104.107 182.741 104.084C182.64 104.06 182.64 104.06 182.64 104.06L182.539 104.036C182.437 104.013 182.437 104.013 182.312 104.09C182.211 104.066 182.211 104.066 182.211 104.066C182.372 102.928 182.431 101.766 182.389 100.581L171.769 100.767Z" fill="white"/>
<path d="M177.644 109.411L177.251 111.991C177.204 112.193 177.234 112.521 177.162 112.825C177.091 113.129 177.144 113.355 177.121 113.457L177.019 113.433C176.918 113.409 176.918 113.409 176.817 113.385C176.716 113.362 176.716 113.362 176.716 113.362L176.614 113.338C176.513 113.314 176.513 113.314 176.412 113.291C176.311 113.267 176.311 113.267 176.311 113.267C176.358 113.064 176.406 112.862 176.477 112.558C176.549 112.254 176.596 112.051 176.644 111.849L177.036 109.268L172.182 108.56C172.117 109.292 172.004 110.228 171.795 111.569C171.778 112.099 171.76 112.629 171.742 113.16C171.742 113.16 171.641 113.136 171.54 113.112C171.438 113.088 171.438 113.088 171.337 113.065C171.236 113.041 171.236 113.041 171.236 113.041C171.135 113.017 171.033 112.994 171.033 112.994C170.932 112.97 170.831 112.946 170.807 113.048L171.657 107.154L182.832 108.701L181.981 114.594C181.88 114.571 181.88 114.571 181.779 114.547C181.677 114.523 181.576 114.499 181.576 114.499C181.475 114.476 181.475 114.476 181.374 114.452C181.272 114.428 181.171 114.405 181.147 114.506C181.242 114.101 181.463 113.618 181.504 112.986L181.784 111.342L181.968 110.102L177.644 109.411Z" fill="white"/>
<path d="M174.23 137.577C174.23 137.577 174.206 137.679 174.081 137.756C174.058 137.858 173.932 137.935 173.909 138.037C173.885 138.138 173.861 138.239 173.76 138.215C173.76 138.215 173.736 138.317 173.712 138.418C173.688 138.519 173.665 138.621 173.641 138.722C173.617 138.823 173.593 138.925 173.593 138.925L163.282 134.16C163.306 134.058 163.431 133.981 163.479 133.778C163.502 133.677 163.651 133.498 163.651 133.498C163.675 133.396 163.699 133.295 163.848 133.116C163.895 132.914 163.919 132.812 163.919 132.812L169.125 135.207C169.959 133.478 170.524 132.435 170.62 132.029C170.792 131.749 171.257 130.682 172.013 128.828L166.806 126.434C166.83 126.333 166.955 126.255 167.003 126.052C167.027 125.951 167.176 125.772 167.176 125.772C167.199 125.671 167.223 125.569 167.372 125.391C167.42 125.188 167.443 125.087 167.443 125.087L177.755 129.852C177.755 129.852 177.731 129.953 177.606 130.031C177.582 130.132 177.457 130.209 177.433 130.311C177.409 130.412 177.385 130.513 177.284 130.49C177.284 130.49 177.26 130.591 177.237 130.692C177.213 130.794 177.189 130.895 177.165 130.996C177.141 131.098 177.118 131.199 177.118 131.199L172.775 129.22C172.579 129.602 172.358 130.085 171.989 130.747C171.62 131.408 171.4 131.891 171.18 132.374C170.959 132.857 170.739 133.34 170.471 134.025C170.203 134.711 169.983 135.194 169.786 135.575L174.23 137.577Z" fill="white"/>
<path d="M156.018 145.071C156.042 144.97 156.167 144.892 156.316 144.713C156.465 144.534 156.488 144.433 156.613 144.356C156.637 144.254 156.762 144.177 156.81 143.974C156.959 143.795 156.983 143.694 157.006 143.592C157.411 143.687 157.918 143.806 158.525 143.948C159.133 144.09 159.639 144.209 160.145 144.327C160.652 144.446 161.158 144.564 161.766 144.706L164.189 141.212C162.926 139.313 162.05 138.039 161.484 137.266C161.508 137.164 161.633 137.087 161.657 136.985C161.782 136.908 161.806 136.806 161.806 136.806C161.829 136.705 161.954 136.627 161.978 136.526C162.002 136.425 162.127 136.347 162.127 136.347L168.765 147.2L168.592 147.48L156.018 145.071ZM166.954 145.814L164.451 141.915L162.349 144.95L166.954 145.814Z" fill="white"/>
<path d="M154.503 162.887C153.43 161.994 152.614 161.376 152.179 160.953C151.744 160.531 151.006 160.037 150.011 159.27C149.016 158.503 148.224 157.783 147.485 157.289C146.746 156.796 146.133 156.225 145.495 155.755C145.62 155.677 145.644 155.576 145.769 155.498C145.894 155.421 146.019 155.343 146.043 155.242C146.067 155.14 146.192 155.063 146.317 154.985C146.466 154.806 146.49 154.705 146.591 154.729C147.205 155.3 148.021 155.918 148.992 156.787C149.963 157.656 150.857 158.399 151.494 158.869C152.209 159.464 152.745 159.91 153.102 160.207C152.81 159.177 152.518 158.147 152.357 157.468C152.119 156.664 151.88 155.86 151.72 155.181C151.481 154.377 151.32 153.698 151.034 153.096C150.873 152.418 150.587 151.816 150.402 151.238L150.527 151.161L152.505 151.838C153.595 152.2 155.876 152.947 159.45 154.105C159.194 153.831 158.807 153.206 158.14 152.408C157.472 151.611 156.906 150.837 156.418 150.188C155.929 149.539 155.518 149.016 155.083 148.593C154.672 148.069 154.339 147.671 153.981 147.373C154.005 147.272 154.106 147.296 154.231 147.218C154.356 147.14 154.38 147.039 154.481 147.063C154.505 146.962 154.607 146.985 154.654 146.783C154.779 146.705 154.803 146.604 154.803 146.604C155.679 147.878 156.888 149.55 158.533 151.645C160.153 153.842 161.231 155.163 161.72 155.812L161.446 156.068C160.255 155.682 159.165 155.32 158.176 154.982C157.187 154.644 156.198 154.305 155.085 154.045C154.096 153.706 152.982 153.446 151.868 153.185C151.922 153.411 152.029 153.864 152.244 154.769C152.482 155.573 152.774 156.603 153.144 157.759C153.513 158.914 153.704 159.921 153.966 160.623C154.205 161.427 154.366 162.106 154.526 162.785L154.503 162.887Z" fill="white"/>
<path d="M125.191 177.616C126.813 177.996 128.436 176.988 128.818 175.365C129.199 173.743 128.193 172.119 126.571 171.74C124.949 171.36 123.326 172.368 122.944 173.991C122.563 175.613 123.569 177.236 125.191 177.616Z" fill="white"/>
</svg>
